<?xml version="1.0" encoding="utf-8"?>
<!-- Generator: Adobe Illustrator 16.0.0, SVG Export Plug-In . SVG Version: 6.00 Build 0)  -->
<!DOCTYPE svg PUBLIC "-//W3C//DTD SVG 1.1//EN" "http://www.w3.org/Graphics/SVG/1.1/DTD/svg11.dtd">
<svg version="1.1" id="Layer_1" xmlns="http://www.w3.org/2000/svg" xmlns:xlink="http://www.w3.org/1999/xlink" x="0px" y="0px"
	 width="800px" height="600px" viewBox="0 0 800 600" enable-background="new 0 0 800 600" xml:space="preserve">
<g>
	<path fill="#518C40" d="M551.927,331.035c0,6.344-5.141,11.484-11.484,11.484c-6.346,0-11.482-5.141-11.482-11.484
		s5.137-11.486,11.482-11.486C546.786,319.549,551.927,324.691,551.927,331.035z"/>
	<path fill="#518C40" d="M731.235,342.627c-12.059,0-21.959-4.357-28.797-11.588l0,0c-6.848-7.227-10.629-17.293-10.629-28.625l0,0
		c0-11.428,4.158-21.496,11.195-28.695l0,0c7.031-7.197,16.955-11.521,28.391-11.518l0,0c13.414-0.014,22.854,5.182,28.828,12.857
		l0,0c5.977,7.668,8.535,17.729,8.537,27.516l0,0v5.922h-60.021c0.537,12.029,11.918,20.053,24.395,20.072l0,0
		c7.74-0.01,13.465-3.594,18.613-9.418l0,0l0.564-0.635l10.975,9.324l-0.561,0.662l0.561-0.662l0.672,0.572l-0.576,0.656
		c-7.889,9.068-18.557,13.559-32.098,13.559l0,0C731.269,342.627,731.255,342.627,731.235,342.627L731.235,342.627z
		 M751.821,295.389c-0.672-11.721-7.135-20.01-20.744-20.082l0,0c-13.133,0.023-21.801,10.797-22.334,20.082l0,0H751.821
		L751.821,295.389z"/>
	<path fill="#518C40" d="M662.116,340.734V298.15c0.004-5.633-0.611-10.955-2.793-14.74l0,0c-2.188-3.766-5.797-6.176-12.465-6.205
		l0,0c-13.24,0.082-18.135,8.635-18.248,21.732l0,0v41.797h-15.955v-40.059c0.004-7.07-0.537-13.049-2.65-17.1l0,0
		c-2.123-4.025-5.611-6.332-12.291-6.371l0,0c-9.785,0.055-18.498,7.184-18.561,23.789l0,0v39.74h-15.965v-75.766v-0.871h15.01
		v9.646c3.385-4.996,11.836-11.486,23.471-11.543l0,0c10.742-0.037,18.518,4.475,23.406,12.996l0,0
		c5.289-8.586,14.842-12.996,23.686-12.996l0,0c11.729-0.023,19.213,4.236,23.59,10.689l0,0c4.377,6.439,5.713,14.896,5.721,23.359
		l0,0v44.484H662.116L662.116,340.734z"/>
	<path fill="#1C3664" d="M30.905,329.002l-0.482-0.664l11.982-9.869l0.559,0.557c4.555,4.543,9.668,8.588,17.561,8.598l0,0
		c3.516,0.004,7.195-0.738,9.896-2.207l0,0c2.719-1.492,4.398-3.559,4.404-6.41l0,0c-0.006-3.799-2.559-6.023-6.178-7.639l0,0
		c-3.594-1.582-8.043-2.336-11.176-3.057l0,0c-12.129-2.926-23.592-7.195-23.572-22.174l0,0c-0.01-8.094,3.77-14.174,9.314-18.104
		l0,0c5.543-3.945,12.814-5.832,19.996-5.832l0,0c10.137-0.004,20.74,3.541,26.338,12.74l0,0l0.406,0.67l-11.684,8.846l-0.672,0.51
		l-0.523-0.656c-3.219-3.959-7.826-7.096-14.654-7.105l0,0c-3.188,0-6.17,0.73-8.275,2.047l0,0
		c-2.111,1.328-3.332,3.113-3.344,5.465l0,0c0.008,4.016,2.77,6.281,6.648,7.887l0,0c3.852,1.572,8.578,2.24,11.814,2.971l0,0
		c12.357,2.926,22.512,8.064,22.467,22.643l0,0c0.018,8.727-4.059,14.953-9.99,18.834l0,0c-5.928,3.902-13.664,5.572-21.217,5.576
		l0,0c-0.061,0-0.117,0-0.178,0l0,0C47.979,342.627,38.437,339.303,30.905,329.002L30.905,329.002z"/>
	<path fill="#1C3664" d="M153.798,340.73l-33.508-37.469v37.469h-15.955V220.406v-0.869h15.955l-0.002,75.881l31.014-31.16h22.244
		l-35.844,34.869l38.705,41.604H153.798L153.798,340.73z"/>
	<path fill="#1C3664" d="M213.44,342.627c-12.059,0-21.951-4.352-28.793-11.59l0,0c-6.848-7.229-10.631-17.291-10.629-28.623l0,0
		c-0.002-11.428,4.15-21.492,11.189-28.689l0,0c7.037-7.203,16.955-11.527,28.395-11.523l0,0
		c13.416-0.014,22.854,5.182,28.826,12.857l0,0c5.98,7.666,8.535,17.725,8.541,27.516l0,0v5.922h-60.027
		c0.543,12.029,11.92,20.059,24.396,20.072l0,0c7.742-0.01,13.465-3.594,18.619-9.416l0,0l0.559-0.641l10.979,9.332l-0.562,0.656
		l0.562-0.656l0.67,0.564l-0.578,0.66c-7.885,9.068-18.555,13.559-32.1,13.559l0,0C213.474,342.627,213.458,342.627,213.44,342.627
		L213.44,342.627z M234.032,295.389c-0.676-11.719-7.143-20.012-20.746-20.082l0,0c-13.133,0.023-21.801,10.797-22.334,20.082l0,0
		H234.032L234.032,295.389z"/>
	<path fill="#1C3664" d="M485.927,342.627c-12.057,0-21.953-4.357-28.797-11.59l0,0c-6.844-7.229-10.629-17.291-10.629-28.623l0,0
		c0-11.426,4.152-21.492,11.195-28.695l0,0c7.037-7.197,16.949-11.521,28.389-11.518l0,0c13.42-0.014,22.861,5.182,28.83,12.857l0,0
		c5.984,7.668,8.539,17.727,8.541,27.516l0,0v5.922h-60.031c0.543,12.029,11.922,20.059,24.4,20.072l0,0
		c7.738-0.01,13.463-3.594,18.619-9.418l0,0l0.561-0.635l10.975,9.328l-0.562,0.658l0.562-0.658l0.67,0.564l-0.578,0.66
		c-7.887,9.074-18.555,13.559-32.096,13.559l0,0C485.958,342.627,485.94,342.627,485.927,342.627L485.927,342.627z M506.517,295.383
		c-0.676-11.719-7.139-20.006-20.748-20.076l0,0c-13.127,0.023-21.801,10.791-22.334,20.076l0,0H506.517L506.517,295.383z"/>
	<path fill="#1C3664" d="M271.249,330.979c-6.783-7.252-10.562-17.311-10.562-28.564l0,0c0-11.414,3.822-21.477,10.625-28.684l0,0
		c6.803-7.209,16.576-11.533,28.324-11.529l0,0c10.174,0.008,19.943,4.271,25.521,11.277l0,0v-53.941h15.957v120.328v0.869h-15.957
		v-9.443c-5.959,7.293-15.873,11.326-25.521,11.336l0,0C287.806,342.627,278.03,338.225,271.249,330.979L271.249,330.979z
		 M339.378,339.865V339V339.865L339.378,339.865z M277.589,302.414c0.059,14.811,9.072,25.16,23.783,25.209l0,0
		c14.709-0.049,23.725-10.398,23.785-25.209l0,0c-0.061-14.811-9.076-25.164-23.785-25.205l0,0
		C286.661,277.25,277.647,287.604,277.589,302.414L277.589,302.414z"/>
	<g>
		<path fill="#1C3664" d="M392.116,378.654c-7.184,0-13.803-0.916-19.984-3.092l0,0l-0.816-0.287l5.01-14.172l0.318-0.9l0.869,0.406
			c4.268,1.998,8.949,3.041,14.289,3.041l0,0c20.725-0.088,26.033-12.639,26.15-25.047l0,0v-8.877
			c-5.803,8.135-15.703,11.951-25.521,11.951l0,0c-11.146,0-20.9-4.197-27.854-11.174l0,0c-6.953-6.979-11.102-16.732-11.096-27.773
			l0,0c0-0.105-0.006-0.215,0-0.318l0,0c0-11.256,3.781-21.312,10.566-28.561l0,0c6.777-7.252,16.557-11.654,28.383-11.65l0,0
			c9.646,0.008,19.562,4.045,25.521,11.336l0,0v-9.439h15.959v75.137c0.006,11.506-4.195,21.395-11.547,28.379l0,0
			c-7.346,6.98-17.805,11.041-30.23,11.041l0,0C392.126,378.654,392.122,378.654,392.116,378.654L392.116,378.654z M394.171,326.674
			c14.754-0.064,23.713-9.465,23.781-24.262l0,0c-0.059-14.809-9.078-25.162-23.781-25.203l0,0
			c-14.713,0.041-23.729,10.395-23.787,25.203l0,0C370.448,317.209,379.409,326.609,394.171,326.674L394.171,326.674z"/>
	</g>
	<path fill="#1C3664" d="M365.147,352.828l-10.58,13.871c0,0,6.787,4.412,16.748,8.576c4.852-7.816,3.971-7.629,5.328-15.072
		C370.792,357.195,365.147,352.828,365.147,352.828z"/>
</g>
</svg>
