<?xml version="1.0" encoding="utf-8"?>
<!-- Generator: Adobe Illustrator 18.1.1, SVG Export Plug-In . SVG Version: 6.00 Build 0)  -->
<svg version="1.1" id="Layer_1" xmlns="http://www.w3.org/2000/svg" xmlns:xlink="http://www.w3.org/1999/xlink" x="0px" y="0px"
	 viewBox="0 0 761 471.8" enable-background="new 0 0 761 471.8" xml:space="preserve">
<g>
	<polygon fill="#FFF200" points="98.4,466.1 46,466.1 0,5.8 49.8,5.8 71.4,272.4 95.2,5.8 145,5.8 	"/>
	<polygon fill="#FFF200" points="209.8,61 209.8,207.1 253.5,207.1 253.5,262.4 209.8,262.4 209.8,466.1 156.2,466.1 156.2,5.8 
		267.9,5.8 267.9,61 	"/>
	<rect x="288.6" y="5.8" fill="#FFF200" width="54.1" height="460.3"/>
	<polygon fill="#FFF200" points="369.7,466.1 369.7,5.8 423.8,5.8 423.8,410.9 481.3,410.9 481.3,466.1 	"/>
	<polygon fill="#FFF200" points="498.6,466.1 498.6,5.8 610.2,5.8 610.2,61 552.1,61 552.1,201.4 591.2,201.4 591.2,256.7 
		552.1,256.7 552.1,410.9 610.2,410.9 610.2,466.1 	"/>
	<path fill="#FFF200" d="M690.8,471.8c-43.2,0-69.6-38-69.6-84.6v-55.8h49.5v63.9c0,12.1,8.1,24.2,19,24.2
		c10.4,0,17.3-9.2,17.3-24.2c0-46-10.4-82.9-34-136.9c-20.1-46.6-50.1-119.1-50.1-166.9C622.9,38,645.3,0,694.8,0
		c37.4,0,65,38,65,84.6v61.6h-50.1V75.9c0-13.8-8.6-20.7-16.1-20.7c-7.5,0-16.7,6.9-16.7,20.7c0,61,10.4,80,35.7,140.4
		c24.7,58.7,48.3,118.6,48.3,166.9C761,455.2,718.4,471.8,690.8,471.8"/>
</g>
</svg>
