<?xml version="1.0" encoding="UTF-8" standalone="no"?>
<svg width="430px" height="55px" viewBox="0 0 430 55" version="1.1" xmlns="http://www.w3.org/2000/svg" xmlns:xlink="http://www.w3.org/1999/xlink" xmlns:sketch="http://www.bohemiancoding.com/sketch/ns">
    <!-- Generator: Sketch 3.4.3 (16618) - http://www.bohemiancoding.com/sketch -->
    <title>Compose Conference Logo</title>
    <desc>Created with Sketch.</desc>
    <defs></defs>
    <g id="Page-1" stroke="none" stroke-width="1" fill="none" fill-rule="evenodd" sketch:type="MSPage">
        <path d="M27.2,35.56 C25.8399932,37.4000092 24.2666756,38.719996 22.48,39.52 C20.6933244,40.320004 18.7600104,40.72 16.68,40.72 C14.5199892,40.72 12.540009,40.353337 10.74,39.62 C8.939991,38.886663 7.4000064,37.8600066 6.12,36.54 C4.8399936,35.2199934 3.8400036,33.6466758 3.12,31.82 C2.3999964,29.9933242 2.04,28.0000108 2.04,25.84 C2.04,23.6799892 2.3999964,21.6933424 3.12,19.88 C3.8400036,18.0666576 4.8399936,16.5000066 6.12,15.18 C7.4000064,13.8599934 8.939991,12.8266704 10.74,12.08 C12.540009,11.3333296 14.5199892,10.96 16.68,10.96 C18.6000096,10.96 20.393325,11.2999966 22.06,11.98 C23.726675,12.6600034 25.1866604,13.799992 26.44,15.4 L24.28,17.2 C23.3999956,15.86666 22.2733402,14.8933364 20.9,14.28 C19.5266598,13.6666636 18.1200072,13.36 16.68,13.36 C14.8399908,13.36 13.1800074,13.6799968 11.7,14.32 C10.2199926,14.9600032 8.9600052,15.8399944 7.92,16.96 C6.8799948,18.0800056 6.0800028,19.3999924 5.52,20.92 C4.9599972,22.4400076 4.68,24.0799912 4.68,25.84 C4.68,27.6000088 4.9599972,29.2399924 5.52,30.76 C6.0800028,32.2800076 6.8799948,33.5999944 7.92,34.72 C8.9600052,35.8400056 10.2199926,36.7199968 11.7,37.36 C13.1800074,38.0000032 14.8399908,38.32 16.68,38.32 C17.4000036,38.32 18.1466628,38.2333342 18.92,38.06 C19.6933372,37.8866658 20.446663,37.6200018 21.18,37.26 C21.913337,36.8999982 22.61333,36.4466694 23.28,35.9 C23.94667,35.3533306 24.5333308,34.6933372 25.04,33.92 L27.2,35.56 Z M39.8349132,36.3867188 C37.4911515,36.3867188 35.4761977,35.5338627 33.7899913,33.828125 C32.103785,32.1223873 31.2606944,30.0846473 31.2606944,27.7148438 C31.2606944,25.3189984 32.1070402,23.274748 33.7997569,21.5820312 C35.4924737,19.8893145 37.5367241,19.0429688 39.9325694,19.0429688 C42.3284148,19.0429688 44.3726652,19.8893145 46.0653819,21.5820312 C47.7580987,23.274748 48.6044444,25.3124881 48.6044444,27.6953125 C48.6044444,30.1302205 47.7548436,32.1874916 46.0556163,33.8671875 C44.3563891,35.5468834 42.2828421,36.3867188 39.8349132,36.3867188 L39.8349132,36.3867188 Z M39.8544444,34.9414062 C41.8857046,34.9414062 43.6109478,34.2382883 45.0302257,32.8320312 C46.4495036,31.4257742 47.1591319,29.7135518 47.1591319,27.6953125 C47.1591319,25.7161359 46.4527588,24.0201894 45.0399913,22.6074219 C43.6272238,21.1946544 41.9247669,20.4882812 39.9325694,20.4882812 C37.940372,20.4882812 36.2379151,21.1946544 34.8251476,22.6074219 C33.4123801,24.0201894 32.7060069,25.7226463 32.7060069,27.7148438 C32.7060069,29.6809994 33.4091249,31.376946 34.8153819,32.8027344 C36.221639,34.2285228 37.9013097,34.9414062 39.8544444,34.9414062 L39.8544444,34.9414062 Z M55.3738889,26.72 C55.3738889,26.3733316 55.3605557,25.9533358 55.3338889,25.46 C55.3072221,24.9666642 55.2872223,24.4666692 55.2738889,23.96 C55.2605555,23.4533308 55.2405557,22.9800022 55.2138889,22.54 C55.1872221,22.0999978 55.1738889,21.7600012 55.1738889,21.52 L57.5738889,21.52 C57.6005557,22.2133368 57.6205555,22.8799968 57.6338889,23.52 C57.6472223,24.1600032 57.6805553,24.5733324 57.7338889,24.76 L57.8538889,24.76 C58.3338913,23.7466616 59.1338833,22.873337 60.2538889,22.14 C61.3738945,21.406663 62.6805481,21.04 64.1738889,21.04 C65.4005617,21.04 66.5205505,21.3533302 67.5338889,21.98 C68.5472273,22.6066698 69.2805533,23.6266596 69.7338889,25.04 C70.3205585,23.6533264 71.1938831,22.6400032 72.3538889,22 C73.5138947,21.3599968 74.7338825,21.04 76.0138889,21.04 C77.4538961,21.04 78.6272177,21.2666644 79.5338889,21.72 C80.4405601,22.1733356 81.1538863,22.766663 81.6738889,23.5 C82.1938915,24.233337 82.5538879,25.0799952 82.7538889,26.04 C82.9538899,27.0000048 83.0538889,27.9866616 83.0538889,29 L83.0538889,40 L80.6538889,40 L80.6538889,29.12 C80.6538889,28.3733296 80.5872229,27.6466702 80.4538889,26.94 C80.3205549,26.2333298 80.0872239,25.6000028 79.7538889,25.04 C79.4205539,24.4799972 78.9538919,24.033335 78.3538889,23.7 C77.7538859,23.366665 76.9738937,23.2 76.0138889,23.2 C74.8938833,23.2 73.9738925,23.4066646 73.2538889,23.82 C72.5338853,24.2333354 71.9672243,24.7599968 71.5538889,25.4 C71.1405535,26.0400032 70.8472231,26.7333296 70.6738889,27.48 C70.5005547,28.2266704 70.4138889,28.93333 70.4138889,29.6 L70.4138889,40 L68.0138889,40 L68.0138889,28.88 C68.0138889,27.1733248 67.7005587,25.8000052 67.0738889,24.76 C66.4472191,23.7199948 65.4805621,23.2 64.1738889,23.2 C63.2938845,23.2 62.4605595,23.3533318 61.6738889,23.66 C60.8872183,23.9666682 60.2072251,24.4333302 59.6338889,25.06 C59.0605527,25.6866698 58.6072239,26.4733286 58.2738889,27.42 C57.9405539,28.3666714 57.7738889,29.4799936 57.7738889,30.76 L57.7738889,40 L55.3738889,40 L55.3738889,26.72 Z M89.3783333,21.52 L91.7783333,21.52 L91.7783333,24.76 L91.8583333,24.76 C92.2316685,24.1199968 92.6983305,23.566669 93.2583333,23.1 C93.8183361,22.633331 94.4249967,22.2466682 95.0783333,21.94 C95.7316699,21.6333318 96.4183297,21.4066674 97.1383333,21.26 C97.8583369,21.1133326 98.5649965,21.04 99.2583333,21.04 C100.671674,21.04 101.971661,21.2799976 103.158333,21.76 C104.345006,22.2400024 105.371662,22.913329 106.238333,23.78 C107.105004,24.646671 107.778331,25.6733274 108.258333,26.86 C108.738336,28.0466726 108.978333,29.3466596 108.978333,30.76 C108.978333,32.1733404 108.738336,33.4733274 108.258333,34.66 C107.778331,35.8466726 107.105004,36.873329 106.238333,37.74 C105.371662,38.606671 104.345006,39.2799976 103.158333,39.76 C101.971661,40.2400024 100.671674,40.48 99.2583333,40.48 C98.5649965,40.48 97.8583369,40.4066674 97.1383333,40.26 C96.4183297,40.1133326 95.7316699,39.8866682 95.0783333,39.58 C94.4249967,39.2733318 93.8183361,38.886669 93.2583333,38.42 C92.6983305,37.953331 92.2316685,37.4000032 91.8583333,36.76 L91.7783333,36.76 L91.7783333,49.12 L89.3783333,49.12 L89.3783333,21.52 Z M91.5383333,30.76 C91.5383333,31.8000052 91.7383313,32.7799954 92.1383333,33.7 C92.5383353,34.6200046 93.0849965,35.4199966 93.7783333,36.1 C94.4716701,36.7800034 95.2849953,37.319998 96.2183333,37.72 C97.1516713,38.120002 98.1649945,38.32 99.2583333,38.32 C100.378339,38.32 101.391662,38.120002 102.298333,37.72 C103.205005,37.319998 103.97833,36.7800034 104.618333,36.1 C105.258337,35.4199966 105.744998,34.6200046 106.078333,33.7 C106.411668,32.7799954 106.578333,31.8000052 106.578333,30.76 C106.578333,29.7199948 106.411668,28.7400046 106.078333,27.82 C105.744998,26.8999954 105.258337,26.1000034 104.618333,25.42 C103.97833,24.7399966 103.205005,24.200002 102.298333,23.8 C101.391662,23.399998 100.378339,23.2 99.2583333,23.2 C98.1649945,23.2 97.1516713,23.399998 96.2183333,23.8 C95.2849953,24.200002 94.4716701,24.7399966 93.7783333,25.42 C93.0849965,26.1000034 92.5383353,26.8999954 92.1383333,27.82 C91.7383313,28.7400046 91.5383333,29.7199948 91.5383333,30.76 L91.5383333,30.76 Z M122.813247,36.3867188 C120.469485,36.3867188 118.454531,35.5338627 116.768325,33.828125 C115.082118,32.1223873 114.239028,30.0846473 114.239028,27.7148438 C114.239028,25.3189984 115.085373,23.274748 116.77809,21.5820312 C118.470807,19.8893145 120.515057,19.0429688 122.910903,19.0429688 C125.306748,19.0429688 127.350998,19.8893145 129.043715,21.5820312 C130.736432,23.274748 131.582778,25.3124881 131.582778,27.6953125 C131.582778,30.1302205 130.733177,32.1874916 129.03395,33.8671875 C127.334722,35.5468834 125.261175,36.3867188 122.813247,36.3867188 L122.813247,36.3867188 Z M122.832778,34.9414062 C124.864038,34.9414062 126.589281,34.2382883 128.008559,32.8320312 C129.427837,31.4257742 130.137465,29.7135518 130.137465,27.6953125 C130.137465,25.7161359 129.431092,24.0201894 128.018325,22.6074219 C126.605557,21.1946544 124.9031,20.4882812 122.910903,20.4882812 C120.918705,20.4882812 119.216248,21.1946544 117.803481,22.6074219 C116.390713,24.0201894 115.68434,25.7226463 115.68434,27.7148438 C115.68434,29.6809994 116.387458,31.376946 117.793715,32.8027344 C119.199972,34.2285228 120.879643,34.9414062 122.832778,34.9414062 L122.832778,34.9414062 Z M138.392222,35.28 C138.898891,36.2666716 139.645551,37.0199974 140.632222,37.54 C141.618894,38.0600026 142.658883,38.32 143.752222,38.32 C144.258891,38.32 144.765553,38.2400008 145.272222,38.08 C145.778891,37.9199992 146.23222,37.6933348 146.632222,37.4 C147.032224,37.1066652 147.358888,36.7533354 147.612222,36.34 C147.865557,35.9266646 147.992222,35.453336 147.992222,34.92 C147.992222,34.0666624 147.718892,33.4266688 147.172222,33 C146.625553,32.5733312 145.952226,32.2400012 145.152222,32 C144.352218,31.7599988 143.472227,31.5533342 142.512222,31.38 C141.552217,31.2066658 140.672226,30.9400018 139.872222,30.58 C139.072218,30.2199982 138.398892,29.7200032 137.852222,29.08 C137.305553,28.4399968 137.032222,27.5333392 137.032222,26.36 C137.032222,25.4533288 137.218887,24.66667 137.592222,24 C137.965557,23.33333 138.452219,22.7800022 139.052222,22.34 C139.652225,21.8999978 140.325552,21.5733344 141.072222,21.36 C141.818893,21.1466656 142.578885,21.04 143.352222,21.04 C144.87223,21.04 146.18555,21.3199972 147.292222,21.88 C148.398894,22.4400028 149.258886,23.319994 149.872222,24.52 L147.712222,25.8 C147.258887,24.9466624 146.692226,24.3000022 146.012222,23.86 C145.332219,23.4199978 144.445561,23.2 143.352222,23.2 C142.925553,23.2 142.478891,23.266666 142.012222,23.4 C141.545553,23.533334 141.125557,23.7199988 140.752222,23.96 C140.378887,24.2000012 140.065557,24.5066648 139.812222,24.88 C139.558888,25.2533352 139.432222,25.6799976 139.432222,26.16 C139.432222,26.9866708 139.705553,27.599998 140.252222,28 C140.798892,28.400002 141.472218,28.7133322 142.272222,28.94 C143.072226,29.1666678 143.952217,29.3599992 144.912222,29.52 C145.872227,29.6800008 146.752218,29.9399982 147.552222,30.3 C148.352226,30.6600018 149.025553,31.1799966 149.572222,31.86 C150.118892,32.5400034 150.392222,33.5066604 150.392222,34.76 C150.392222,35.7200048 150.212224,36.5533298 149.852222,37.26 C149.49222,37.9666702 148.998892,38.5599976 148.372222,39.04 C147.745552,39.5200024 147.032226,39.8799988 146.232222,40.12 C145.432218,40.3600012 144.592227,40.48 143.712222,40.48 C142.112214,40.48 140.652229,40.1733364 139.332222,39.56 C138.012216,38.9466636 136.992226,38.0000064 136.272222,36.72 L138.392222,35.28 Z M172.156667,36.52 C171.223329,37.9333404 170.070007,38.9466636 168.696667,39.56 C167.323326,40.1733364 165.810008,40.48 164.156667,40.48 C162.743326,40.48 161.463339,40.2400024 160.316667,39.76 C159.169994,39.2799976 158.183337,38.606671 157.356667,37.74 C156.529996,36.873329 155.896669,35.8466726 155.456667,34.66 C155.016664,33.4733274 154.796667,32.1600072 154.796667,30.72 C154.796667,29.3333264 155.023331,28.0533392 155.476667,26.88 C155.930002,25.7066608 156.569996,24.686671 157.396667,23.82 C158.223337,22.953329 159.196661,22.2733358 160.316667,21.78 C161.436672,21.2866642 162.67666,21.04 164.036667,21.04 C165.450007,21.04 166.696661,21.2866642 167.776667,21.78 C168.856672,22.2733358 169.76333,22.9266626 170.496667,23.74 C171.230004,24.5533374 171.783331,25.4799948 172.156667,26.52 C172.530002,27.5600052 172.716667,28.613328 172.716667,29.68 L172.716667,31.36 L157.196667,31.36 C157.196667,31.8666692 157.296666,32.5133294 157.496667,33.3 C157.696668,34.0866706 158.063331,34.8533296 158.596667,35.6 C159.130003,36.3466704 159.843329,36.986664 160.736667,37.52 C161.630004,38.053336 162.783326,38.32 164.196667,38.32 C165.423339,38.32 166.609994,38.0266696 167.756667,37.44 C168.903339,36.8533304 169.78333,36.0533384 170.396667,35.04 L172.156667,36.52 Z M170.316667,29.2 C170.316667,28.3733292 170.150002,27.6000036 169.816667,26.88 C169.483332,26.1599964 169.030003,25.5266694 168.456667,24.98 C167.88333,24.4333306 167.203337,24.0000016 166.416667,23.68 C165.629996,23.3599984 164.796671,23.2 163.916667,23.2 C162.609993,23.2 161.523338,23.466664 160.656667,24 C159.789996,24.533336 159.103336,25.1466632 158.596667,25.84 C158.089997,26.5333368 157.730001,27.2066634 157.516667,27.86 C157.303332,28.5133366 157.196667,28.9599988 157.196667,29.2 L170.316667,29.2 Z M189.445556,23.2 C189.445556,22.666664 189.63222,22.2133352 190.005556,21.84 C190.378891,21.4666648 190.83222,21.28 191.365556,21.28 C191.898892,21.28 192.35222,21.4666648 192.725556,21.84 C193.098891,22.2133352 193.285556,22.666664 193.285556,23.2 C193.285556,23.733336 193.098891,24.1866648 192.725556,24.56 C192.35222,24.9333352 191.898892,25.12 191.365556,25.12 C190.83222,25.12 190.378891,24.9333352 190.005556,24.56 C189.63222,24.1866648 189.445556,23.733336 189.445556,23.2 L189.445556,23.2 Z M189.445556,38.32 C189.445556,37.786664 189.63222,37.3333352 190.005556,36.96 C190.378891,36.5866648 190.83222,36.4 191.365556,36.4 C191.898892,36.4 192.35222,36.5866648 192.725556,36.96 C193.098891,37.3333352 193.285556,37.786664 193.285556,38.32 C193.285556,38.853336 193.098891,39.3066648 192.725556,39.68 C192.35222,40.0533352 191.898892,40.24 191.365556,40.24 C190.83222,40.24 190.378891,40.0533352 190.005556,39.68 C189.63222,39.3066648 189.445556,38.853336 189.445556,38.32 L189.445556,38.32 Z M200.29,23.2 C200.29,22.666664 200.476665,22.2133352 200.85,21.84 C201.223335,21.4666648 201.676664,21.28 202.21,21.28 C202.743336,21.28 203.196665,21.4666648 203.57,21.84 C203.943335,22.2133352 204.13,22.666664 204.13,23.2 C204.13,23.733336 203.943335,24.1866648 203.57,24.56 C203.196665,24.9333352 202.743336,25.12 202.21,25.12 C201.676664,25.12 201.223335,24.9333352 200.85,24.56 C200.476665,24.1866648 200.29,23.733336 200.29,23.2 L200.29,23.2 Z M200.29,38.32 C200.29,37.786664 200.476665,37.3333352 200.85,36.96 C201.223335,36.5866648 201.676664,36.4 202.21,36.4 C202.743336,36.4 203.196665,36.5866648 203.57,36.96 C203.943335,37.3333352 204.13,37.786664 204.13,38.32 C204.13,38.853336 203.943335,39.3066648 203.57,39.68 C203.196665,40.0533352 202.743336,40.24 202.21,40.24 C201.676664,40.24 201.223335,40.0533352 200.85,39.68 C200.476665,39.3066648 200.29,38.853336 200.29,38.32 L200.29,38.32 Z M245.898889,35.56 C244.538882,37.4000092 242.965565,38.719996 241.178889,39.52 C239.392213,40.320004 237.458899,40.72 235.378889,40.72 C233.218878,40.72 231.238898,40.353337 229.438889,39.62 C227.63888,38.886663 226.098895,37.8600066 224.818889,36.54 C223.538883,35.2199934 222.538893,33.6466758 221.818889,31.82 C221.098885,29.9933242 220.738889,28.0000108 220.738889,25.84 C220.738889,23.6799892 221.098885,21.6933424 221.818889,19.88 C222.538893,18.0666576 223.538883,16.5000066 224.818889,15.18 C226.098895,13.8599934 227.63888,12.8266704 229.438889,12.08 C231.238898,11.3333296 233.218878,10.96 235.378889,10.96 C237.298899,10.96 239.092214,11.2999966 240.758889,11.98 C242.425564,12.6600034 243.885549,13.799992 245.138889,15.4 L242.978889,17.2 C242.098885,15.86666 240.972229,14.8933364 239.598889,14.28 C238.225549,13.6666636 236.818896,13.36 235.378889,13.36 C233.53888,13.36 231.878896,13.6799968 230.398889,14.32 C228.918882,14.9600032 227.658894,15.8399944 226.618889,16.96 C225.578884,18.0800056 224.778892,19.3999924 224.218889,20.92 C223.658886,22.4400076 223.378889,24.0799912 223.378889,25.84 C223.378889,27.6000088 223.658886,29.2399924 224.218889,30.76 C224.778892,32.2800076 225.578884,33.5999944 226.618889,34.72 C227.658894,35.8400056 228.918882,36.7199968 230.398889,37.36 C231.878896,38.0000032 233.53888,38.32 235.378889,38.32 C236.098893,38.32 236.845552,38.2333342 237.618889,38.06 C238.392226,37.8866658 239.145552,37.6200018 239.878889,37.26 C240.612226,36.8999982 241.312219,36.4466694 241.978889,35.9 C242.645559,35.3533306 243.23222,34.6933372 243.738889,33.92 L245.898889,35.56 Z M249.463333,30.76 C249.463333,29.3466596 249.703331,28.0466726 250.183333,26.86 C250.663336,25.6733274 251.329996,24.646671 252.183333,23.78 C253.036671,22.913329 254.063327,22.2400024 255.263333,21.76 C256.463339,21.2799976 257.769993,21.04 259.183333,21.04 C260.596674,21.04 261.896661,21.2799976 263.083333,21.76 C264.270006,22.2400024 265.296662,22.913329 266.163333,23.78 C267.030004,24.646671 267.703331,25.6733274 268.183333,26.86 C268.663336,28.0466726 268.903333,29.3466596 268.903333,30.76 C268.903333,32.1733404 268.663336,33.4733274 268.183333,34.66 C267.703331,35.8466726 267.030004,36.873329 266.163333,37.74 C265.296662,38.606671 264.270006,39.2799976 263.083333,39.76 C261.896661,40.2400024 260.596674,40.48 259.183333,40.48 C257.769993,40.48 256.463339,40.2400024 255.263333,39.76 C254.063327,39.2799976 253.036671,38.606671 252.183333,37.74 C251.329996,36.873329 250.663336,35.8466726 250.183333,34.66 C249.703331,33.4733274 249.463333,32.1733404 249.463333,30.76 L249.463333,30.76 Z M251.863333,30.76 C251.863333,31.8000052 252.029998,32.7799954 252.363333,33.7 C252.696668,34.6200046 253.18333,35.4199966 253.823333,36.1 C254.463337,36.7800034 255.236662,37.319998 256.143333,37.72 C257.050005,38.120002 258.063328,38.32 259.183333,38.32 C260.303339,38.32 261.316662,38.120002 262.223333,37.72 C263.130005,37.319998 263.90333,36.7800034 264.543333,36.1 C265.183337,35.4199966 265.669998,34.6200046 266.003333,33.7 C266.336668,32.7799954 266.503333,31.8000052 266.503333,30.76 C266.503333,29.7199948 266.336668,28.7400046 266.003333,27.82 C265.669998,26.8999954 265.183337,26.1000034 264.543333,25.42 C263.90333,24.7399966 263.130005,24.200002 262.223333,23.8 C261.316662,23.399998 260.303339,23.2 259.183333,23.2 C258.063328,23.2 257.050005,23.399998 256.143333,23.8 C255.236662,24.200002 254.463337,24.7399966 253.823333,25.42 C253.18333,26.1000034 252.696668,26.8999954 252.363333,27.82 C252.029998,28.7400046 251.863333,29.7199948 251.863333,30.76 L251.863333,30.76 Z M274.707778,26.72 C274.707778,26.3733316 274.694445,25.9533358 274.667778,25.46 C274.641111,24.9666642 274.621111,24.4666692 274.607778,23.96 C274.594444,23.4533308 274.574445,22.9800022 274.547778,22.54 C274.521111,22.0999978 274.507778,21.7600012 274.507778,21.52 L276.907778,21.52 C276.934445,22.2133368 276.954444,22.8799968 276.967778,23.52 C276.981111,24.1600032 277.014444,24.5733324 277.067778,24.76 L277.187778,24.76 C277.66778,23.7466616 278.467772,22.873337 279.587778,22.14 C280.707783,21.406663 282.014437,21.04 283.507778,21.04 C284.947785,21.04 286.121107,21.2666644 287.027778,21.72 C287.934449,22.1733356 288.647775,22.766663 289.167778,23.5 C289.68778,24.233337 290.047777,25.0799952 290.247778,26.04 C290.447779,27.0000048 290.547778,27.9866616 290.547778,29 L290.547778,40 L288.147778,40 L288.147778,29.12 C288.147778,28.3733296 288.081112,27.6466702 287.947778,26.94 C287.814444,26.2333298 287.581113,25.6000028 287.247778,25.04 C286.914443,24.4799972 286.447781,24.033335 285.847778,23.7 C285.247775,23.366665 284.467783,23.2 283.507778,23.2 C282.627773,23.2 281.794448,23.3533318 281.007778,23.66 C280.221107,23.9666682 279.541114,24.4333302 278.967778,25.06 C278.394442,25.6866698 277.941113,26.4733286 277.607778,27.42 C277.274443,28.3666714 277.107778,29.4799936 277.107778,30.76 L277.107778,40 L274.707778,40 L274.707778,26.72 Z M298.752222,23.68 L294.912222,23.68 L294.912222,21.52 L298.752222,21.52 L298.752222,15.48 C298.752222,14.279994 298.93222,13.2866706 299.292222,12.5 C299.652224,11.7133294 300.098886,11.0800024 300.632222,10.6 C301.165558,10.1199976 301.758886,9.780001 302.412222,9.58 C303.065559,9.379999 303.685553,9.28 304.272222,9.28 C305.392228,9.28 306.312219,9.4399984 307.032222,9.76 L306.552222,11.84 C306.018886,11.573332 305.298893,11.44 304.392222,11.44 C302.232211,11.44 301.152222,13.0799836 301.152222,16.36 L301.152222,21.52 L305.472222,21.52 L305.472222,23.68 L301.152222,23.68 L301.152222,40 L298.752222,40 L298.752222,23.68 Z M325.996667,36.52 C325.063329,37.9333404 323.910007,38.9466636 322.536667,39.56 C321.163327,40.1733364 319.650008,40.48 317.996667,40.48 C316.583326,40.48 315.303339,40.2400024 314.156667,39.76 C313.009994,39.2799976 312.023338,38.606671 311.196667,37.74 C310.369996,36.873329 309.736669,35.8466726 309.296667,34.66 C308.856665,33.4733274 308.636667,32.1600072 308.636667,30.72 C308.636667,29.3333264 308.863331,28.0533392 309.316667,26.88 C309.770002,25.7066608 310.409996,24.686671 311.236667,23.82 C312.063338,22.953329 313.036661,22.2733358 314.156667,21.78 C315.276672,21.2866642 316.51666,21.04 317.876667,21.04 C319.290007,21.04 320.536661,21.2866642 321.616667,21.78 C322.696672,22.2733358 323.60333,22.9266626 324.336667,23.74 C325.070004,24.5533374 325.623332,25.4799948 325.996667,26.52 C326.370002,27.5600052 326.556667,28.613328 326.556667,29.68 L326.556667,31.36 L311.036667,31.36 C311.036667,31.8666692 311.136666,32.5133294 311.336667,33.3 C311.536668,34.0866706 311.903331,34.8533296 312.436667,35.6 C312.970003,36.3466704 313.683329,36.986664 314.576667,37.52 C315.470005,38.053336 316.623326,38.32 318.036667,38.32 C319.26334,38.32 320.449994,38.0266696 321.596667,37.44 C322.743339,36.8533304 323.62333,36.0533384 324.236667,35.04 L325.996667,36.52 Z M324.156667,29.2 C324.156667,28.3733292 323.990002,27.6000036 323.656667,26.88 C323.323332,26.1599964 322.870003,25.5266694 322.296667,24.98 C321.723331,24.4333306 321.043337,24.0000016 320.256667,23.68 C319.469996,23.3599984 318.636671,23.2 317.756667,23.2 C316.449994,23.2 315.363338,23.466664 314.496667,24 C313.629996,24.533336 312.943336,25.1466632 312.436667,25.84 C311.929998,26.5333368 311.570001,27.2066634 311.356667,27.86 C311.143332,28.5133366 311.036667,28.9599988 311.036667,29.2 L324.156667,29.2 Z M332.361111,26.72 C332.361111,26.3733316 332.347778,25.9533358 332.321111,25.46 C332.294444,24.9666642 332.274445,24.4666692 332.261111,23.96 C332.247778,23.4533308 332.227778,22.9800022 332.201111,22.54 C332.174444,22.0999978 332.161111,21.7600012 332.161111,21.52 L334.561111,21.52 C334.587778,22.2133368 334.607778,22.8799968 334.621111,23.52 C334.634445,24.1600032 334.667778,24.5733324 334.721111,24.76 C335.334448,23.6666612 336.121106,22.7733368 337.081111,22.08 C338.041116,21.3866632 339.214438,21.04 340.601111,21.04 C340.841112,21.04 341.074443,21.0599998 341.301111,21.1 C341.527779,21.1400002 341.76111,21.1866664 342.001111,21.24 L341.721111,23.6 C341.40111,23.4933328 341.094446,23.44 340.801111,23.44 C339.761106,23.44 338.861115,23.606665 338.101111,23.94 C337.341107,24.273335 336.714447,24.7333304 336.221111,25.32 C335.727775,25.9066696 335.361112,26.5933294 335.121111,27.38 C334.88111,28.1666706 334.761111,29.0133288 334.761111,29.92 L334.761111,40 L332.361111,40 L332.361111,26.72 Z M361.725556,36.52 C360.792218,37.9333404 359.638896,38.9466636 358.265556,39.56 C356.892215,40.1733364 355.378897,40.48 353.725556,40.48 C352.312215,40.48 351.032228,40.2400024 349.885556,39.76 C348.738883,39.2799976 347.752226,38.606671 346.925556,37.74 C346.098885,36.873329 345.465558,35.8466726 345.025556,34.66 C344.585553,33.4733274 344.365556,32.1600072 344.365556,30.72 C344.365556,29.3333264 344.59222,28.0533392 345.045556,26.88 C345.498891,25.7066608 346.138885,24.686671 346.965556,23.82 C347.792226,22.953329 348.76555,22.2733358 349.885556,21.78 C351.005561,21.2866642 352.245549,21.04 353.605556,21.04 C355.018896,21.04 356.26555,21.2866642 357.345556,21.78 C358.425561,22.2733358 359.332219,22.9266626 360.065556,23.74 C360.798893,24.5533374 361.35222,25.4799948 361.725556,26.52 C362.098891,27.5600052 362.285556,28.613328 362.285556,29.68 L362.285556,31.36 L346.765556,31.36 C346.765556,31.8666692 346.865555,32.5133294 347.065556,33.3 C347.265557,34.0866706 347.63222,34.8533296 348.165556,35.6 C348.698892,36.3466704 349.412218,36.986664 350.305556,37.52 C351.198893,38.053336 352.352215,38.32 353.765556,38.32 C354.992228,38.32 356.178883,38.0266696 357.325556,37.44 C358.472228,36.8533304 359.352219,36.0533384 359.965556,35.04 L361.725556,36.52 Z M359.885556,29.2 C359.885556,28.3733292 359.718891,27.6000036 359.385556,26.88 C359.052221,26.1599964 358.598892,25.5266694 358.025556,24.98 C357.452219,24.4333306 356.772226,24.0000016 355.985556,23.68 C355.198885,23.3599984 354.36556,23.2 353.485556,23.2 C352.178882,23.2 351.092227,23.466664 350.225556,24 C349.358885,24.533336 348.672225,25.1466632 348.165556,25.84 C347.658886,26.5333368 347.29889,27.2066634 347.085556,27.86 C346.872221,28.5133366 346.765556,28.9599988 346.765556,29.2 L359.885556,29.2 Z M368.09,26.72 C368.09,26.3733316 368.076667,25.9533358 368.05,25.46 C368.023333,24.9666642 368.003333,24.4666692 367.99,23.96 C367.976667,23.4533308 367.956667,22.9800022 367.93,22.54 C367.903333,22.0999978 367.89,21.7600012 367.89,21.52 L370.29,21.52 C370.316667,22.2133368 370.336667,22.8799968 370.35,23.52 C370.363333,24.1600032 370.396666,24.5733324 370.45,24.76 L370.57,24.76 C371.050002,23.7466616 371.849994,22.873337 372.97,22.14 C374.090006,21.406663 375.396659,21.04 376.89,21.04 C378.330007,21.04 379.503329,21.2666644 380.41,21.72 C381.316671,22.1733356 382.029997,22.766663 382.55,23.5 C383.070003,24.233337 383.429999,25.0799952 383.63,26.04 C383.830001,27.0000048 383.93,27.9866616 383.93,29 L383.93,40 L381.53,40 L381.53,29.12 C381.53,28.3733296 381.463334,27.6466702 381.33,26.94 C381.196666,26.2333298 380.963335,25.6000028 380.63,25.04 C380.296665,24.4799972 379.830003,24.033335 379.23,23.7 C378.629997,23.366665 377.850005,23.2 376.89,23.2 C376.009996,23.2 375.176671,23.3533318 374.39,23.66 C373.603329,23.9666682 372.923336,24.4333302 372.35,25.06 C371.776664,25.6866698 371.323335,26.4733286 370.99,27.42 C370.656665,28.3666714 370.49,29.4799936 370.49,30.76 L370.49,40 L368.09,40 L368.09,26.72 Z M406.254445,37.28 C405.347773,38.3733388 404.321117,39.1799974 403.174445,39.7 C402.027772,40.2200026 400.787785,40.48 399.454445,40.48 C398.041104,40.48 396.734451,40.2400024 395.534445,39.76 C394.334439,39.2799976 393.307782,38.606671 392.454445,37.74 C391.601107,36.873329 390.934447,35.8466726 390.454445,34.66 C389.974442,33.4733274 389.734445,32.1733404 389.734445,30.76 C389.734445,29.3466596 389.974442,28.0466726 390.454445,26.86 C390.934447,25.6733274 391.601107,24.646671 392.454445,23.78 C393.307782,22.913329 394.334439,22.2400024 395.534445,21.76 C396.734451,21.2799976 398.041104,21.04 399.454445,21.04 C400.814451,21.04 402.074439,21.3199972 403.234445,21.88 C404.39445,22.4400028 405.427773,23.2266616 406.334445,24.24 L404.414445,25.68 C403.721108,24.9066628 402.961115,24.3000022 402.134445,23.86 C401.307774,23.4199978 400.414449,23.2 399.454445,23.2 C398.334439,23.2 397.321116,23.399998 396.414445,23.8 C395.507773,24.200002 394.734448,24.7399966 394.094445,25.42 C393.454441,26.1000034 392.96778,26.8999954 392.634445,27.82 C392.30111,28.7400046 392.134445,29.7199948 392.134445,30.76 C392.134445,31.8000052 392.30111,32.7799954 392.634445,33.7 C392.96778,34.6200046 393.454441,35.4199966 394.094445,36.1 C394.734448,36.7800034 395.507773,37.319998 396.414445,37.72 C397.321116,38.120002 398.334439,38.32 399.454445,38.32 C400.467783,38.32 401.39444,38.086669 402.234445,37.62 C403.074449,37.153331 403.801108,36.5333372 404.414445,35.76 L406.254445,37.28 Z M426.778889,36.52 C425.845551,37.9333404 424.692229,38.9466636 423.318889,39.56 C421.945549,40.1733364 420.432231,40.48 418.778889,40.48 C417.365549,40.48 416.085561,40.2400024 414.938889,39.76 C413.792217,39.2799976 412.80556,38.606671 411.978889,37.74 C411.152218,36.873329 410.518891,35.8466726 410.078889,34.66 C409.638887,33.4733274 409.418889,32.1600072 409.418889,30.72 C409.418889,29.3333264 409.645553,28.0533392 410.098889,26.88 C410.552225,25.7066608 411.192218,24.686671 412.018889,23.82 C412.84556,22.953329 413.818883,22.2733358 414.938889,21.78 C416.058895,21.2866642 417.298882,21.04 418.658889,21.04 C420.072229,21.04 421.318884,21.2866642 422.398889,21.78 C423.478894,22.2733358 424.385552,22.9266626 425.118889,23.74 C425.852226,24.5533374 426.405554,25.4799948 426.778889,26.52 C427.152224,27.5600052 427.338889,28.613328 427.338889,29.68 L427.338889,31.36 L411.818889,31.36 C411.818889,31.8666692 411.918888,32.5133294 412.118889,33.3 C412.31889,34.0866706 412.685553,34.8533296 413.218889,35.6 C413.752225,36.3466704 414.465551,36.986664 415.358889,37.52 C416.252227,38.053336 417.405549,38.32 418.818889,38.32 C420.045562,38.32 421.232217,38.0266696 422.378889,37.44 C423.525561,36.8533304 424.405553,36.0533384 425.018889,35.04 L426.778889,36.52 Z M424.938889,29.2 C424.938889,28.3733292 424.772224,27.6000036 424.438889,26.88 C424.105554,26.1599964 423.652225,25.5266694 423.078889,24.98 C422.505553,24.4333306 421.82556,24.0000016 421.038889,23.68 C420.252218,23.3599984 419.418893,23.2 418.538889,23.2 C417.232216,23.2 416.14556,23.466664 415.278889,24 C414.412218,24.533336 413.725558,25.1466632 413.218889,25.84 C412.71222,26.5333368 412.352223,27.2066634 412.138889,27.86 C411.925555,28.5133366 411.818889,28.9599988 411.818889,29.2 L424.938889,29.2 Z" id="C◦mp◦se-::-Conferenc" fill="#000000" sketch:type="MSShapeGroup"></path>
    </g>
</svg>
